<svg xmlns="http://www.w3.org/2000/svg" width="216.93" height="40.838" viewBox="0 0 216.93 40.838">
  <g id="グループ_371" data-name="グループ 371" transform="translate(-51.662 -9.549)">
    <path id="パス_2652" data-name="パス 2652" d="M80.8,50.387l-14.18-15.74L65.355,45.609,74.37,43.9l-.341,2.292-22.367,4.1.39-2.194,6.383-1.219,1.706-15.253H53.222l.731-2.1h6.432L62.624,9.549H91.911l-.727,2.1H69.2l-.532,4.579H88.307l-.634,2h-19.2l-.488,4.388H87.575l-.585,1.995H67.744l-.585,4.92H91.667l-.727,2.1H66.963l-.244,1.95h5.8l5.018,5.067,4.193-5.554h7.017l-5.505,7.5h-3.8l9.65,9.8Z" transform="translate(0)" fill="#4f54e3"/>
    <path id="パス_2653" data-name="パス 2653" d="M63.77,47.53,68.105,9.861H101L96.758,47.53ZM79.019,29.3H72.441l-1.9,15.984h6.724Zm1.9-17.3H74.488l-1.8,15.058h6.578ZM92.179,29.3H85.357L83.6,45.287h6.724Zm1.995-17.3H87.254L85.6,27.064h6.822Z" transform="translate(37.087 0.956)" fill="#4f54e3"/>
    <path id="パス_2654" data-name="パス 2654" d="M75.134,41.13l1.166-5.9h35.917l-1.316,5.9ZM80.4,13.745l.439-2.145H112.51l-.536,2.145Z" transform="translate(71.896 6.282)" fill="#4f54e3"/>
    <path id="パス_2655" data-name="パス 2655" d="M90.191,25.743,87.217,12.392h5.9L95.55,23.7h2l-.683,2.048ZM96.33,41.288l8.285-15.545H99.4L96.428,12.392h5.652L104.859,25.3l5.8-10.82h-4.53l.532-2.092H118.5l-15.4,28.9Z" transform="translate(108.907 8.708)" fill="#4f54e3"/>
    <path id="パス_2656" data-name="パス 2656" d="M128.258,37c-3.263.049-6.477.049-9.743.049L106.427,24.238,104.14,48.945H97.269l3.653-39.18h6.871l-1.121,12.23h6l12.669,12.916H128.9Z" transform="translate(139.697 0.662)" fill="#4f54e3"/>
  </g>
</svg>
