<?xml version="1.0" encoding="utf-8"?>
<!-- Generator: Adobe Illustrator 25.2.3, SVG Export Plug-In . SVG Version: 6.00 Build 0)  -->
<svg version="1.1" id="レイヤー_1" xmlns="http://www.w3.org/2000/svg" xmlns:xlink="http://www.w3.org/1999/xlink" x="0px"
	 y="0px" viewBox="0 0 216.9 40.8" style="enable-background:new 0 0 216.9 40.8;" xml:space="preserve">
<style type="text/css">
	.st0{fill:#FFFFFF;}
</style>
<g id="グループ_371" transform="translate(-51.662 -9.549)">
	<path id="パス_2652" class="st0" d="M80.8,50.4L66.6,34.6l-1.3,11l9-1.7L74,46.2l-22.4,4.1l0.4-2.2l6.4-1.2l1.7-15.3h-6.9
		l0.7-2.1h6.4l2.2-20h29.3l-0.7,2.1h-22l-0.5,4.6h19.6l-0.6,2H68.5L68,22.6h19.6l-0.6,2H67.7l-0.6,4.9h24.5l-0.7,2.1H67l-0.2,1.9
		h5.8l5,5.1l4.2-5.6h7l-5.5,7.5h-3.8l9.7,9.8L80.8,50.4z"/>
	<path id="パス_2653" class="st0" d="M100.9,48.5l4.3-37.7h32.9l-4.2,37.7H100.9z M116.1,30.3h-6.6l-1.9,16h6.7L116.1,30.3z
		 M118,13h-6.4L109.8,28h6.6L118,13z M129.3,30.3h-6.8l-1.8,16h6.7L129.3,30.3z M131.3,13h-6.9L122.7,28h6.8L131.3,13z"/>
	<path id="パス_2654" class="st0" d="M147,47.4l1.2-5.9h35.9l-1.3,5.9H147z M152.3,20l0.4-2.1h31.7l-0.5,2.1H152.3z"/>
	<path id="パス_2655" class="st0" d="M199.1,34.5l-3-13.4h5.9l2.4,11.3h2l-0.7,2L199.1,34.5z M205.2,50l8.3-15.5h-5.2l-3-13.4h5.7
		l2.8,12.9l5.8-10.8H215l0.5-2.1h11.8L212,50H205.2z"/>
	<path id="パス_2656" class="st0" d="M268,37.7c-3.3,0-6.5,0-9.7,0l-12.1-12.8l-2.3,24.7H237l3.7-39.2h6.9l-1.1,12.2h6L265,35.6
		h3.6L268,37.7z"/>
</g>
</svg>
